
<svg xmlns="http://www.w3.org/2000/svg" viewBox="0 0 500 500" width="500" height="500">
  <path fill="#f2f2f2" d="M415.5 411.1c-7.8 10.9-16.3 21.4-27.9 27.6-11.5 6.2-26.9 7.1-36.2-2.5-9.5-9.8-9.1-25.3-5.6-38.3 3.5-13 9.5-25.7 9.6-39.2.1-17.7-10.5-33.5-24.4-43.2-13.9-9.7-30.5-14.2-47-16.5-24.6-3.5-51.1-2.7-71.8-16.7-14.5-9.8-24.2-25.5-29.2-42.2-5-16.7-6.4-34.3-7.7-51.7-1-13.8-2-28.1 2.3-41.2 6.9-20.7 27.1-33.4 47.9-39.6 20.7-6.2 42.5-7.3 64-8.2 34.8-1.5 70-2.7 103.3 8.4 19.1 6.4 37.1 16.9 50.9 31.4 13.8 14.5 22.7 33.3 24.7 53 2.4 23.5-4.2 46.9-10.7 69.4-4.7 16.3-9.5 32.4-13.5 48.8-4 16.4-7.3 33.2-5.7 49.9 1.1 11.3 4.6 22.4 3.5 33.6-1.1 11.2-7.5 21.2-15.3 32.1"/>
  <path fill="#3f3d56" d="M346.2 223.9H151.8c-5.5 0-10-4.5-10-10v-193c0-5.5 4.5-10 10-10h194.4c5.5 0 10 4.5 10 10v193c0 5.5-4.5 10-10 10"/>
  <path fill="#fff" d="M183.8 31.9h130.3v161.5H183.8z"/>
  <path fill="#e6e6e6" d="M211.7 115.1h18.4v18.4h-18.4z"/>
  <path fill="#1E5F74" d="M245.7 115.1h18.4v18.4h-18.4z"/>
  <path fill="#e6e6e6" d="M279.8 115.1h18.4v18.4h-18.4z"/>
  <path fill="#e6e6e6" d="M245.7 81.1h18.4v18.4h-18.4z"/>
  <path fill="#1E5F74" d="M279.8 81.1h18.4v18.4h-18.4z"/>
  <path fill="#1E5F74" d="M211.7 81.1h18.4v18.4h-18.4z"/>
  <path fill="#e6e6e6" d="M211.7 149.2h18.4v18.4h-18.4zM245.7 149.2h18.4v18.4h-18.4zM279.8 149.2h18.4v18.4h-18.4z"/>
  <path fill="#3f3d56" d="M380.2 451.9H117.8c-5.5 0-10-4.5-10-10v-193c0-5.5 4.5-10 10-10h262.4c5.5 0 10 4.5 10 10v193c0 5.5-4.5 10-10 10"/>
  <path fill="#fff" d="M149.8 260h198.3v161.5H149.8z"/>
  <path fill="#1E5F74" d="M264.5 317.8h18.4v18.4h-18.4z"/>
  <path fill="#e6e6e6" d="M298.5 317.8h18.4v18.4h-18.4zM264.5 283.7h18.4v18.4h-18.4z"/>
  <path fill="#1E5F74" d="M298.5 283.7h18.4v18.4h-18.4z"/>
  <path fill="#e6e6e6" d="M213.8 351.8h103.1v18.4H213.8z"/>
  <path fill="#1E5F74" d="M405 478.3c0 1.4-1.1 2.5-2.5 2.5H95.5c-1.4 0-2.5-1.1-2.5-2.5s1.1-2.5 2.5-2.5h307c1.4 0 2.5 1.1 2.5 2.5"/>
  <path fill="#3f3d56" d="M357.1 83.1c0 14.6-11.8 26.4-26.4 26.4-14.6 0-26.4-11.8-26.4-26.4 0-14.6 11.8-26.4 26.4-26.4 14.6 0 26.4 11.8 26.4 26.4"/>
  <path fill="#3f3d56" d="M167.1 142.1c0 19.9-16.1 36-36 36-19.9 0-36-16.1-36-36s16.1-36 36-36c19.9-.1 36 16 36 36"/>
  <path opacity=".1" d="M344.5 262.8c-17.5 0-31.7-14.2-31.7-31.7s14.2-31.7 31.7-31.7 31.7 14.2 31.7 31.7-14.2 31.7-31.7 31.7zM124.1 328.1c-12.9 0-23.4-10.5-23.4-23.4s10.5-23.4 23.4-23.4 23.4 10.5 23.4 23.4-10.5 23.4-23.4 23.4z"/>
  <path fill="#f2f2f2" d="M406.9 364.5c-8.4 25.5-25.5 47.5-48.5 62-51.3 32.4-120.2 17.4-159.6-19.2-28.4-26.4-63.2-71.7-35.8-101.5 33.3-36.2 52.1 4.3 94.2-18.9 16.9-9.3 28.1-28.5 45.7-36.4 48.2-21.7 75.2 50.7 101.4 60 15.7 5.6 26.5-10.6 35.8-2.8 10.4 8.7-7.4 40.9-12.6 60.4"/>
  <path fill="#3f3d56" d="M278.1 415.1c0 1.4-1.1 2.5-2.5 2.5h-53.7c-1.4 0-2.5-1.1-2.5-2.5s1.1-2.5 2.5-2.5h53.7c1.4 0 2.5 1.2 2.5 2.5M280.6 391.4c0 1.4-1.1 2.5-2.5 2.5h-53.7c-1.4 0-2.5-1.1-2.5-2.5s1.1-2.5 2.5-2.5h53.7c1.3 0 2.5 1.1 2.5 2.5"/>
</svg>
